<svg width="128" height="128" viewBox="0 0 128 128" fill="none" xmlns="http://www.w3.org/2000/svg">
<rect x="4" y="4" width="120" height="120" rx="34" fill="black"/>
<path d="M11.4579 109C9.62999 109 7.91175 108.487 6.30318 107.461C4.76773 106.434 4 104.758 4 102.432C4 100.243 4.65805 98.2588 5.97415 96.48C7.36337 94.7697 9.15473 93.1619 11.3482 91.6568C13.6149 90.2201 16.0277 88.886 18.5868 87.6545C21.1459 86.423 23.6318 85.26 26.0447 84.1653C26.849 82.3181 27.6167 80.3341 28.3479 78.2132C29.079 76.0924 29.7737 73.8005 30.4317 71.3375C27.8726 74.3478 25.1673 76.8449 22.3157 78.829C19.5373 80.813 16.6858 81.805 13.7611 81.805C10.8364 81.805 8.49668 80.8472 6.74188 78.9316C5.06019 77.016 4.21935 74.4846 4.21935 71.3375C4.21935 67.7115 5.16987 64.325 7.0709 61.1779C9.04506 57.9624 11.5676 55.1231 14.6385 52.6602C17.7094 50.1288 20.9996 48.179 24.5092 46.8107C28.0189 45.374 31.3822 44.6556 34.5994 44.6556C36.9391 44.6556 38.6939 45.0661 39.8638 45.8871C41.0336 46.6397 41.6186 47.5291 41.6186 48.5553C41.6186 49.3763 41.3627 50.0262 40.8508 50.5051C40.339 50.984 40.01 51.2577 39.8638 51.3261C39.1326 50.5735 38.3649 50.0946 37.5606 49.8894C36.8294 49.6157 35.952 49.4789 34.9284 49.4789C32.0768 49.4789 29.335 50.2315 26.7028 51.7366C24.0705 53.2417 21.7308 55.1916 19.6835 57.5861C17.7094 59.9122 16.1374 62.3409 14.9675 64.8723C13.7976 67.4036 13.2127 69.6956 13.2127 71.748C13.2127 73.1163 13.5417 74.1767 14.1998 74.9293C14.8578 75.6134 15.6621 75.9555 16.6126 75.9555C18.6599 75.9555 21.1459 74.7241 24.0705 72.2611C26.9952 69.7298 29.8102 66.6853 32.5155 63.1277C32.6618 62.5804 32.7714 62.1015 32.8446 61.691C32.9908 61.2121 33.1005 60.7674 33.1736 60.3569C33.9048 57.6203 34.7822 55.602 35.8058 54.3022C36.8294 53.0023 38.2552 52.3523 40.0831 52.3523C40.4487 52.3523 40.8874 52.3865 41.3992 52.455C41.9841 52.5234 42.6056 52.626 43.2637 52.7628C43.2637 53.9943 42.8981 56.0125 42.1669 58.8176C41.4358 61.6226 40.4487 64.9065 39.2057 68.6693C37.9627 72.3637 36.5735 76.1608 35.0381 80.0604C37.3047 79.171 39.6079 77.9396 41.9476 76.366C44.2873 74.7241 46.4443 72.7742 48.4184 70.5165C50.3926 68.1904 51.8915 65.6249 52.9151 62.8198L54.8893 64.667C53.7194 67.8141 51.8915 70.6876 49.4055 73.2873C46.9926 75.8871 44.3604 78.1448 41.5089 80.0604C38.6573 81.9076 36.0251 83.3444 33.6123 84.3706C31.6381 88.886 29.4812 92.9909 27.1415 96.6853C24.8748 100.448 22.4254 103.424 19.7932 105.613C17.2341 107.871 14.4557 109 11.4579 109ZM11.0192 104.279C12.3353 104.279 14.1267 103.116 16.3933 100.79C18.733 98.4641 21.2556 94.5302 23.9609 88.9886C21.2556 90.2201 18.7696 91.4857 16.503 92.7856C14.2363 94.0855 12.4084 95.4538 11.0192 96.8905C9.62999 98.3272 8.93538 99.8324 8.93538 101.406C8.93538 102.295 9.11817 102.979 9.48376 103.458C9.92246 104.006 10.4343 104.279 11.0192 104.279Z" fill="url(#paint0_linear_1801_2)"/>
<path d="M62.9307 84.7811C58.2512 84.7811 54.6319 83.5838 52.0728 81.1893C49.5869 78.8632 48.3439 75.9213 48.3439 72.3637C48.3439 69.3535 49.1482 66.1722 50.7567 62.8198C52.4384 59.3991 54.6685 56.2178 57.4469 53.2759C60.2253 50.2657 63.2963 47.8369 66.6596 45.9897C70.023 44.1425 73.3864 43.2189 76.7497 43.2189C78.6508 43.2189 80.4421 43.6978 82.1238 44.6556C83.8786 45.545 84.756 47.358 84.756 50.0946C84.756 52.6944 83.9517 55.1231 82.3432 57.3808C80.7346 59.6385 78.5777 61.6568 75.8723 63.4356C73.167 65.2144 70.1692 66.6853 66.879 67.8483C63.6618 68.943 60.4081 69.6613 57.1179 70.0034C57.0448 70.2771 56.9717 70.5849 56.8985 70.927C56.8985 71.2007 56.8985 71.6796 56.8985 72.3637C56.8985 72.7058 56.9351 73.3215 57.0082 74.2109C57.1544 75.0319 57.4835 75.9213 57.9953 76.8791C58.5071 77.8369 59.3479 78.6579 60.5178 79.3421C61.6877 80.0262 63.2963 80.3683 65.3435 80.3683C68.4144 80.3683 71.4853 79.5815 74.5562 78.008C77.7002 76.366 80.6249 74.2109 83.3302 71.5428C86.1087 68.8746 88.4118 65.8985 90.2398 62.6146L92.4333 64.2566C90.4591 68.3615 87.9 71.9532 84.756 75.0319C81.6851 78.1106 78.2486 80.5051 74.4466 82.2155C70.7176 83.9259 66.879 84.7811 62.9307 84.7811ZM58.3243 66.2064C60.2253 66.0011 62.3457 65.3854 64.6855 64.3592C67.0252 63.333 69.2553 62.0331 71.3757 60.4595C73.5692 58.886 75.3605 57.1756 76.7497 55.3284C78.139 53.4128 78.8336 51.4971 78.8336 49.5815C78.8336 48.829 78.6873 48.3158 78.3949 48.0422C78.1024 47.7685 77.6271 47.6317 76.9691 47.6317C75.2874 47.6317 73.5326 48.2132 71.7047 49.3763C69.8768 50.4709 68.0854 51.9418 66.3306 53.7891C64.5758 55.5678 63.0038 57.5519 61.6146 59.7412C60.2253 61.9304 59.1286 64.0855 58.3243 66.2064Z" fill="url(#paint1_linear_1801_2)"/>
<path d="M97.5683 84.9863C94.3512 84.9863 91.7555 84.0969 89.7814 82.3181C87.8072 80.5393 86.8201 77.8369 86.8201 74.2109C86.8201 71.4059 87.3685 67.9168 88.4653 63.7434C89.6351 59.5701 91.0975 55.26 92.8523 50.813C92.3404 50.6762 91.719 50.5735 90.9878 50.5051C90.3297 50.3683 89.6717 50.1631 89.0136 49.8894V46.7081C90.1835 46.8449 91.134 46.9475 91.8652 47.016C92.6695 47.0844 93.4738 47.1528 94.278 47.2212C95.8135 43.5952 97.4586 40.106 99.2134 36.7537C101.041 33.3329 102.833 30.2885 104.588 27.6203C106.415 24.9521 108.134 22.8654 109.742 21.3603C111.351 19.7868 112.777 19 114.02 19C114.751 19 115.445 19.2737 116.103 19.821C116.761 20.2999 117.09 21.0182 117.09 21.9761C117.09 23.3444 116.323 25.2942 114.787 27.8255C113.325 30.3569 111.497 33.3329 109.304 36.7537C107.11 40.106 104.99 43.6978 102.942 47.5291C103.527 47.5291 104.112 47.5291 104.697 47.5291C105.282 47.5291 105.83 47.5291 106.342 47.5291C109.559 47.5291 112.448 47.4949 115.007 47.4265C117.639 47.2896 120.308 47.0844 123.013 46.8107V50.1973C118.992 50.5393 115.299 50.813 111.936 51.0182C108.572 51.2235 105.355 51.3603 102.284 51.4287C102.065 51.4287 101.846 51.4287 101.626 51.4287C101.407 51.4287 101.188 51.4287 100.968 51.4287C99.4328 54.7811 98.0801 58.236 96.9102 61.7936C95.8135 65.2828 95.2651 68.7035 95.2651 72.0559C95.2651 74.8609 95.7404 76.8449 96.6909 78.008C97.6414 79.171 99.1403 79.7526 101.188 79.7526C104.843 79.7526 108.572 78.2132 112.374 75.1345C116.25 71.9875 119.613 67.7457 122.465 62.4093L124 63.4356C122.099 67.4721 119.723 71.1323 116.871 74.4162C114.093 77.7001 111.058 80.2657 107.768 82.1129C104.478 84.0285 101.078 84.9863 97.5683 84.9863Z" fill="url(#paint2_linear_1801_2)"/>
<path d="M70.8745 102.754C71.0044 102.636 71.1299 102.528 71.2512 102.43C71.5246 102.445 71.8029 102.452 72.0862 102.452C73.6184 102.452 74.996 102.242 76.2115 101.812C77.4616 101.378 78.4692 100.705 79.2086 99.7803L79.2087 99.7804L79.2129 99.775C79.9663 98.8062 80.3262 97.5996 80.3262 96.192C80.3262 94.7863 79.9672 93.5893 79.2108 92.6424C79.1828 92.6064 79.1544 92.5708 79.1256 92.5356C79.2528 92.369 79.3853 92.2209 79.5226 92.0905C79.6394 91.9795 79.7703 91.8718 79.9157 91.7678C79.8383 92.1104 79.8083 92.4346 79.8317 92.7383C79.8865 93.4509 80.127 94.0591 80.6147 94.4818L80.6207 94.487L80.6269 94.4921C81.0919 94.8699 81.6213 95.072 82.2022 95.072C82.865 95.072 83.439 94.8253 83.8929 94.3443C84.3915 93.8426 84.6102 93.1628 84.6102 92.376C84.6102 91.594 84.3691 90.9076 83.8708 90.3506C83.3365 89.7534 82.5532 89.5 81.6262 89.5C81.46 89.5 81.2957 89.5084 81.1336 89.5251L80.9956 89.2837L80.8488 89.5634C80.0675 89.6931 79.3359 90.021 78.6593 90.5382C78.3426 90.7782 78.0564 91.0474 77.8004 91.3449C77.3256 91.032 76.7951 90.7747 76.2116 90.5721C74.9961 90.1419 73.6184 89.932 72.0862 89.932C70.553 89.932 69.1642 90.1422 67.9263 90.5716L67.9233 90.5727C66.6932 91.0083 65.6987 91.6957 64.9616 92.6424C64.2052 93.5893 63.8462 94.7863 63.8462 96.192C63.8462 97.5996 64.206 98.8062 64.9595 99.775L64.9595 99.775L64.9638 99.7803C65.7016 100.703 66.6956 101.377 67.9233 101.811L67.9263 101.812C68.1926 101.905 68.4659 101.987 68.7461 102.059C68.1813 102.403 67.6732 102.769 67.2231 103.158C66.2304 104.016 65.7182 105.1 65.7182 106.38C65.7182 107.174 65.9394 107.891 66.3898 108.51L66.3897 108.51L66.3965 108.519C66.6942 108.91 67.0767 109.236 67.5335 109.502C66.1315 109.842 65.038 110.307 64.3088 110.932L64.3087 110.932L64.3012 110.939C63.5609 111.6 63.1262 112.362 63.1262 113.22C63.1262 114.084 63.5547 114.787 64.3054 115.317C65.0324 115.854 66.0193 116.234 67.2306 116.481C68.4743 116.754 69.9267 116.888 71.5822 116.888C74.2303 116.888 76.4202 116.573 78.1298 115.92C79.8176 115.299 81.1087 114.437 81.9514 113.308C82.8049 112.219 83.2422 111.01 83.2422 109.692C83.2422 108.376 82.8794 107.265 82.1109 106.411C81.3867 105.556 80.3837 104.96 79.1369 104.604C77.9284 104.251 76.5236 104.08 74.9302 104.08H71.4382C71.0697 104.08 70.8867 103.997 70.7984 103.918C70.7212 103.85 70.6422 103.719 70.6422 103.428C70.6422 103.071 70.7421 102.874 70.8745 102.754ZM68.6222 110.255L68.4051 109.908C69.2044 110.199 70.1604 110.336 71.2582 110.336H73.2022C73.9477 110.336 74.5452 110.395 75.0047 110.503C75.4687 110.612 75.7543 110.763 75.9174 110.918C76.3263 111.307 76.5182 111.754 76.5182 112.284C76.5182 112.854 76.3577 113.35 76.0378 113.79L76.0334 113.796L76.0291 113.802C75.7389 114.228 75.2788 114.581 74.6057 114.842L74.5965 114.845L74.5874 114.849C73.949 115.126 73.1219 115.276 72.0862 115.276C70.5981 115.276 69.5018 115.019 68.7469 114.557L68.7434 114.555C68.0455 114.136 67.7262 113.575 67.7262 112.824C67.7262 112.553 67.7738 112.25 67.8775 111.912C67.9961 111.624 68.2219 111.268 68.5806 110.842L68.8151 110.564L68.6222 110.255ZM61.7932 94.2647C60.9778 92.7358 59.8195 91.6228 58.3213 90.9499C56.8735 90.2651 55.1788 89.932 53.252 89.932C51.3471 89.932 49.6536 90.2658 48.1842 90.9492C46.6853 91.622 45.5265 92.7353 44.7108 94.2647C43.89 95.8038 43.5 97.8267 43.5 100.296C43.5 102.765 43.89 104.788 44.7108 106.327C45.5271 107.858 46.687 108.972 48.1875 109.644C49.6559 110.303 51.3481 110.624 53.252 110.624C55.1779 110.624 56.8713 110.303 58.318 109.644C59.8178 108.971 60.9771 107.857 61.7932 106.327C62.614 104.788 63.004 102.765 63.004 100.296C63.004 97.8267 62.614 95.8038 61.7932 94.2647ZM51.9263 93.4701C52.1573 92.7772 52.4031 92.3037 52.6461 92.0121C52.8819 91.7292 53.0825 91.652 53.252 91.652C53.4215 91.652 53.6221 91.7292 53.8579 92.0121C54.1009 92.3037 54.3467 92.7772 54.5777 93.4701C55.0305 94.8286 55.272 97.0875 55.272 100.296C55.272 103.504 55.0306 105.762 54.5781 107.121C54.3476 107.8 54.1025 108.264 53.8606 108.55C53.6261 108.826 53.4249 108.904 53.252 108.904C53.0791 108.904 52.8779 108.826 52.6434 108.55C52.4015 108.264 52.1564 107.8 51.9259 107.121C51.4734 105.762 51.232 103.504 51.232 100.296C51.232 97.0875 51.4735 94.8286 51.9263 93.4701ZM72.695 100.021C72.4443 100.727 72.199 100.804 72.0862 100.804C71.9734 100.804 71.7281 100.727 71.4774 100.021C71.2453 99.3666 71.1102 98.1136 71.1102 96.192C71.1102 94.2704 71.2453 93.0174 71.4774 92.3632C71.7281 91.6568 71.9734 91.58 72.0862 91.58C72.199 91.58 72.4443 91.6568 72.695 92.3632C72.9271 93.0174 73.0622 94.2704 73.0622 96.192C73.0622 98.1136 72.9271 99.3666 72.695 100.021Z" fill="black" stroke="white"/>
<rect x="4" y="4" width="120" height="120" rx="34" stroke="url(#paint3_linear_1801_2)" stroke-width="8"/>
<defs>
<linearGradient id="paint0_linear_1801_2" x1="4" y1="19" x2="90.4" y2="134.2" gradientUnits="userSpaceOnUse">
<stop offset="0.0570247" stop-color="#FF9999"/>
<stop offset="0.250909" stop-color="#CCFF99"/>
<stop offset="0.513223" stop-color="#99FFFF"/>
<stop offset="0.764637" stop-color="#9999FF"/>
<stop offset="0.942975" stop-color="#FF99EE"/>
</linearGradient>
<linearGradient id="paint1_linear_1801_2" x1="4" y1="19" x2="90.4" y2="134.2" gradientUnits="userSpaceOnUse">
<stop offset="0.0570247" stop-color="#FF9999"/>
<stop offset="0.250909" stop-color="#CCFF99"/>
<stop offset="0.513223" stop-color="#99FFFF"/>
<stop offset="0.764637" stop-color="#9999FF"/>
<stop offset="0.942975" stop-color="#FF99EE"/>
</linearGradient>
<linearGradient id="paint2_linear_1801_2" x1="4" y1="19" x2="90.4" y2="134.2" gradientUnits="userSpaceOnUse">
<stop offset="0.0570247" stop-color="#FF9999"/>
<stop offset="0.250909" stop-color="#CCFF99"/>
<stop offset="0.513223" stop-color="#99FFFF"/>
<stop offset="0.764637" stop-color="#9999FF"/>
<stop offset="0.942975" stop-color="#FF99EE"/>
</linearGradient>
<linearGradient id="paint3_linear_1801_2" x1="0" y1="-1.52588e-05" x2="128" y2="128" gradientUnits="userSpaceOnUse">
<stop offset="0.0570247" stop-color="#FF9999"/>
<stop offset="0.250909" stop-color="#CCFF99"/>
<stop offset="0.513223" stop-color="#99FFFF"/>
<stop offset="0.764637" stop-color="#9999FF"/>
<stop offset="0.942975" stop-color="#FF99EE"/>
</linearGradient>
</defs>
</svg>
